<svg width="93" height="38" viewBox="0 0 93 38" fill="none" xmlns="http://www.w3.org/2000/svg">
<rect width="93" height="38" fill="white"/>
<path d="M79.3334 20.3304H77.7778" stroke="#52B7B7" stroke-width="3" stroke-linecap="round"/>
<path d="M77.4566 21.5807C77.4566 23.4612 78.933 26.4657 76.4454 28.1235C75.3874 28.8286 72.335 29.4433 72.6765 28.1235C73.0424 26.709 74.527 25.2741 75.3883 23.8964C75.912 23.0588 77.5941 21.268 76.5373 20.4229C76.0332 20.0198 75.3142 21.1816 74.7907 21.5807C73.7385 22.3831 72.5636 23.1397 71.2516 23.8781C69.3503 24.9481 67.5537 26.5641 65.0926 27.4251C62.5519 28.3141 64.2957 25.0368 64.4032 24.8889C65.1687 23.8359 68.2728 20.9156 66.3336 21.691C63.3754 22.8739 61.6392 25.1931 59.6231 26.6532C53.3306 31.2107 58.4497 24.0142 57.4169 22.7754C57.0348 22.317 55.7603 23.487 55.1188 23.8964C53.8055 24.7346 52.4433 25.5481 51.0281 26.3592C49.5999 27.1777 47.8634 28.9128 45.2828 29.2814C44.2512 29.4287 47.4439 24.2286 47.6728 23.7494C49.1894 20.5747 49.2173 17.3348 49.3275 14.119C49.4449 10.6909 51.7973 7.54148 53.5101 4.23134C54.3955 2.52007 59.8606 1.55714 63.7597 2.43023C69.7566 3.77306 74.2466 7.64683 77.4566 9.9287C81.3058 12.665 87.0343 14.9113 89.8665 17.8683C93.356 21.5116 70.1119 19.4934 66.5634 19.2467C58.1337 18.6604 49.6963 18.0703 41.284 17.4456C36.3228 17.0771 31.717 16.2632 26.8058 15.8466C20.6121 15.3213 19.5486 20.0324 17.8891 21.5807" stroke="#52B7B7" stroke-width="3" stroke-linecap="round"/>
<path d="M43.5557 36C43.8731 33.6511 49.0413 31.9724 54.6174 32.2336C59.1717 32.447 62.2666 33.7381 66.5433 34.1879C70.7564 34.631 74.6411 34.027 78.5556 33.4417" stroke="#52B7B7" stroke-width="3" stroke-linecap="round"/>
<path d="M75.4445 15.8533C77.2387 15.3205 77.1161 15.7785 78.5556 16.1731" stroke="#52B7B7" stroke-width="3" stroke-linecap="round"/>
<path d="M90.2222 19.371C90.2222 20.0961 90.4478 20.6086 91 21.2897" stroke="#52B7B7" stroke-width="3" stroke-linecap="round"/>
<path d="M3.11132 4.34092C-2.31731 4.34092 13.6282 3.22888 18.9261 2.74198C22.1374 2.44684 30.5493 1.4362 22.5557 2.42219" stroke="#52B7B7" stroke-width="3" stroke-linecap="round"/>
<path d="M10.8891 3.70132C7.39475 1.18705 10.9952 9.58841 13.2224 12.3356" stroke="#52B7B7" stroke-width="3" stroke-linecap="round"/>
<path d="M19.4446 7.21904C19.4319 7.16169 17.8117 9.69579 17.5866 10.3992C17.1705 11.6994 19.8471 13.5387 23.2903 12.2646C29.7595 9.87071 21.0228 5.6015 17.889 8.1784" stroke="#52B7B7" stroke-width="3" stroke-linecap="round"/>
<path d="M28.7779 7.53876C27.7849 6.31393 29.6195 10.0899 30.3335 10.7189C32.9304 13.0069 35.0025 10.0736 35.9508 8.88898C36.2628 8.49916 36.7281 7.01301 37.5063 6.75705C37.6445 6.71159 38.125 8.78428 38.1545 8.96004C38.3903 10.3664 39.8764 11.4702 41.2223 9.56409C41.7523 8.81358 43.0844 5.74933 43.21 5.90428C43.9167 6.77599 44.1819 7.70911 44.2902 8.62249C44.3752 9.33822 43.1011 11.2789 44.3334 10.7722C44.8174 10.5732 44.9424 9.41145 45.1112 9.1377C45.8566 7.92886 46.7811 6.66563 48.6976 5.67332C51.6267 4.15677 56.2056 4.56669 59.889 3.70129" stroke="#52B7B7" stroke-width="3" stroke-linecap="round"/>
</svg>
